<?xml version="1.0" encoding="iso-8859-1"?>
<!-- Uploaded to: SVG Repo, www.svgrepo.com, Generator: SVG Repo Mixer Tools -->
<svg version="1.1" id="Layer_1" xmlns="http://www.w3.org/2000/svg" xmlns:xlink="http://www.w3.org/1999/xlink" 
	 viewBox="0 0 503.33 503.33" xml:space="preserve">
<path style="fill:#F16D6E;" d="M121.6,264.397c-40.533,19.2-73.6,54.4-115.2,71.467c25.6-9.6,51.2-21.333,75.733-32
	c-16,16-30.933,30.933-46.933,46.933c23.467-11.733,46.933-24.533,69.333-37.333c-18.133,19.2-36.267,39.467-54.4,58.667
	c17.067-9.6,33.067-22.4,46.933-37.333c6.4-6.4,12.8-14.933,21.333-17.067c-13.867,27.733-30.933,54.4-48,80
	c20.267-16,41.6-33.067,61.867-49.067c-16,26.667-32,52.267-48,78.933c22.4-19.2,42.667-41.6,60.8-65.067
	c-14.933,32-28.8,64-39.467,97.067c19.2-30.933,40.533-59.733,65.067-86.4c-6.4,7.467-9.6,18.133-11.733,28.8
	c-9.6,35.2-21.333,69.333-36.267,101.333c32-34.133,60.8-70.4,86.4-109.867c-8.533,26.667-18.133,52.267-26.667,78.933
	c22.4-35.2,44.8-71.467,62.933-109.867L141.867,259.064C134.4,259.064,128,262.264,121.6,264.397z"/>
<g>
	<polygon style="fill:#FEC656;" points="246.4,129.997 162.133,112.93 50.133,223.864 140.8,238.797 	"/>
	<polygon style="fill:#FEC656;" points="366.933,250.53 384,334.797 273.067,445.73 258.133,356.13 	"/>
</g>
<path style="fill:#F16D6E;" d="M494.933,1.997C419.2-9.736,342.4,31.864,279.467,84.13L412.8,217.464
	C465.067,154.53,506.667,77.73,494.933,1.997z"/>
<path style="fill:#53C2EF;" d="M279.467,84.13c-82.133,69.333-140.8,155.733-140.8,155.733l58.667,58.667L256,357.197
	c0,0,86.4-58.667,155.733-140.8L279.467,84.13z"/>
<rect x="210.205" y="189.945" transform="matrix(-0.7071 -0.7071 0.7071 -0.7071 179.8907 621.8682)" style="fill:#FEC656;" width="17.067" height="167.465"/>
<rect x="282.357" y="182.3" transform="matrix(-0.7071 -0.7071 0.7071 -0.7071 354.0983 549.6722)" style="fill:#F3B74B;" width="17.067" height="38.4"/>
</svg>